<svg width="45" height="18" viewBox="0 0 45 18" fill="none" xmlns="http://www.w3.org/2000/svg">
<path d="M20.7686 15H16.1104V14.3506L18.5713 11.6162C18.9359 11.2028 19.1865 10.8675 19.3232 10.6104C19.4632 10.3499 19.5332 10.0814 19.5332 9.80469C19.5332 9.43359 19.4209 9.12923 19.1963 8.8916C18.9717 8.65397 18.6722 8.53516 18.2979 8.53516C17.8486 8.53516 17.4987 8.66374 17.248 8.9209C17.0007 9.1748 16.877 9.52962 16.877 9.98535H15.9736C15.9736 9.33105 16.1836 8.80208 16.6035 8.39844C17.0267 7.99479 17.5915 7.79297 18.2979 7.79297C18.9587 7.79297 19.4811 7.96712 19.8652 8.31543C20.2493 8.66048 20.4414 9.12109 20.4414 9.69727C20.4414 10.3971 19.9954 11.2305 19.1035 12.1973L17.1992 14.2627H20.7686V15ZM26.6836 11.9678C26.6836 13.0257 26.5029 13.8118 26.1416 14.3262C25.7803 14.8405 25.2155 15.0977 24.4473 15.0977C23.6888 15.0977 23.1273 14.847 22.7627 14.3457C22.3981 13.8411 22.2093 13.0892 22.1963 12.0898V10.8838C22.1963 9.83887 22.377 9.0625 22.7383 8.55469C23.0996 8.04688 23.666 7.79297 24.4375 7.79297C25.2025 7.79297 25.7656 8.03874 26.127 8.53027C26.4883 9.01855 26.6738 9.77376 26.6836 10.7959V11.9678ZM25.7803 10.7324C25.7803 9.96745 25.6729 9.41081 25.458 9.0625C25.2432 8.71094 24.903 8.53516 24.4375 8.53516C23.9753 8.53516 23.6383 8.70931 23.4268 9.05762C23.2152 9.40592 23.1061 9.94141 23.0996 10.6641V12.1094C23.0996 12.8776 23.2103 13.4456 23.4316 13.8135C23.6562 14.1781 23.9948 14.3604 24.4473 14.3604C24.8932 14.3604 25.2236 14.1878 25.4385 13.8428C25.6566 13.4977 25.7705 12.9541 25.7803 12.2119V10.7324ZM31.3096 15H30.4014V8.97949L28.5801 9.64844V8.82812L31.168 7.85645H31.3096V15ZM37.918 11.875C37.7292 12.0996 37.5029 12.2803 37.2393 12.417C36.9788 12.5537 36.6924 12.6221 36.3799 12.6221C35.9697 12.6221 35.6117 12.5212 35.3057 12.3193C35.0029 12.1175 34.7686 11.8343 34.6025 11.4697C34.4365 11.1019 34.3535 10.6966 34.3535 10.2539C34.3535 9.77865 34.443 9.35059 34.6221 8.96973C34.8044 8.58887 35.0615 8.29753 35.3936 8.0957C35.7256 7.89388 36.113 7.79297 36.5557 7.79297C37.2588 7.79297 37.8122 8.05664 38.2158 8.58398C38.6227 9.10807 38.8262 9.82422 38.8262 10.7324V10.9961C38.8262 12.3796 38.5527 13.3903 38.0059 14.0283C37.459 14.6631 36.6338 14.9886 35.5303 15.0049H35.3545V14.2432H35.5449C36.2904 14.2301 36.8633 14.0365 37.2637 13.6621C37.6641 13.2845 37.8822 12.6888 37.918 11.875ZM36.5264 11.875C36.8291 11.875 37.1074 11.7822 37.3613 11.5967C37.6185 11.4111 37.8057 11.1816 37.9229 10.9082V10.5469C37.9229 9.95443 37.7943 9.47266 37.5371 9.10156C37.2799 8.73047 36.9544 8.54492 36.5605 8.54492C36.1634 8.54492 35.8444 8.69792 35.6035 9.00391C35.3626 9.30664 35.2422 9.70703 35.2422 10.2051C35.2422 10.6901 35.3577 11.0905 35.5889 11.4062C35.8232 11.7188 36.1357 11.875 36.5264 11.875Z" fill="white" fill-opacity="0.5"/>
<path d="M4.71836 13.4617C4.95365 13.4617 5.15924 13.3904 5.33512 13.2478C5.51099 13.1052 5.60844 12.9269 5.62745 12.713H6.25134C6.23945 12.934 6.1634 13.1444 6.02317 13.344C5.88295 13.5437 5.69519 13.7029 5.45989 13.8217C5.22698 13.9406 4.9798 14 4.71836 14C4.19311 14 3.77481 13.8253 3.46346 13.4759C3.15449 13.1242 3 12.6441 3 12.0357V11.9251C3 11.5496 3.06892 11.2157 3.20677 10.9234C3.34462 10.631 3.54189 10.404 3.79857 10.2424C4.05764 10.0808 4.36304 10 4.71479 10C5.14736 10 5.50624 10.1295 5.79144 10.3886C6.07903 10.6477 6.23232 10.984 6.25134 11.3975H5.62745C5.60844 11.148 5.51337 10.9436 5.34225 10.7843C5.1735 10.6227 4.96435 10.5419 4.71479 10.5419C4.37968 10.5419 4.11943 10.6631 3.93405 10.9055C3.75104 11.1456 3.65954 11.4938 3.65954 11.9501V12.0749C3.65954 12.5193 3.75104 12.8616 3.93405 13.1016C4.11705 13.3417 4.37849 13.4617 4.71836 13.4617Z" fill="white" fill-opacity="0.5"/>
<circle cx="5" cy="12" r="4.4" stroke="white" stroke-opacity="0.5" stroke-width="0.8"/>
</svg>
